<svg width="30" height="32" viewBox="0 0 30 32" fill="none" xmlns="http://www.w3.org/2000/svg">
<path d="M18.8195 13.8414C17.689 14.5968 16.3597 15 15 15C13.1766 15 11.428 14.2757 10.1386 12.9864C8.84933 11.6971 8.125 9.94837 8.125 8.125C8.125 6.76526 8.52821 5.43605 9.28365 4.30546C10.0391 3.17487 11.1128 2.29368 12.3691 1.77333C13.6253 1.25298 15.0076 1.11683 16.3412 1.3821C17.6749 1.64738 18.8999 2.30216 19.8614 3.26364C20.8228 4.22513 21.4776 5.45014 21.7429 6.78376C22.0082 8.11738 21.872 9.49971 21.3517 10.756C20.8313 12.0122 19.9501 13.0859 18.8195 13.8414ZM1.375 27.25C1.375 24.8624 3.33181 22.8657 6.29931 21.4025C9.2102 19.9673 12.7154 19.25 15 19.25C17.2846 19.25 20.7898 19.9673 23.7007 21.4025C26.6682 22.8657 28.625 24.8624 28.625 27.25V30.75H1.375V27.25Z" stroke="black" stroke-width="2"/>
</svg>
