<?xml version="1.0" standalone="no"?>
<!DOCTYPE svg PUBLIC "-//W3C//DTD SVG 20010904//EN"
 "http://www.w3.org/TR/2001/REC-SVG-20010904/DTD/svg10.dtd">
<svg version="1.0" xmlns="http://www.w3.org/2000/svg"
 width="441.000000pt" height="114.000000pt" viewBox="0 0 441.000000 114.000000"
 preserveAspectRatio="xMidYMid meet">

<g transform="translate(0.000000,114.000000) scale(0.100000,-0.100000)"
fill="#000000" stroke="none">
<path d="M607 838 c-13 -29 -63 -152 -113 -272 -84 -208 -91 -220 -124 -235
l-35 -16 43 -3 c23 -2 59 -2 80 0 l37 4 -33 13 c-38 15 -38 23 -2 105 l19 46
99 0 98 0 31 -70 c38 -84 69 -103 161 -97 40 2 51 6 37 11 -16 5 -50 77 -137
284 -63 152 -120 278 -126 280 -7 2 -22 -20 -35 -50z m22 -240 l40 -98 -91 0
c-68 0 -89 3 -85 13 46 117 82 196 88 190 4 -5 25 -52 48 -105z"/>
<path d="M1005 856 c-32 -48 22 -104 74 -76 24 12 29 68 9 88 -21 21 -66 14
-83 -12z"/>
<path d="M3853 868 l27 -10 0 -262 0 -262 -27 -11 c-23 -9 -5 -11 92 -11 97 0
115 2 93 11 l-28 11 0 253 c0 304 4 293 -112 292 -61 0 -69 -2 -45 -11z"/>
<path d="M1698 820 c-10 -6 -20 -29 -24 -55 -5 -39 -10 -45 -30 -45 -13 0 -24
-4 -24 -10 0 -5 11 -10 25 -10 l25 0 0 -122 c1 -155 9 -194 53 -235 60 -55
170 -56 207 -3 22 31 34 80 20 80 -5 0 -10 -7 -10 -15 0 -30 -30 -75 -54 -81
-71 -17 -86 22 -86 229 l0 147 60 0 c33 0 60 4 60 10 0 6 -27 10 -60 10 l-60
0 0 55 0 55 -42 0 c-24 0 -51 -5 -60 -10z"/>
<path d="M2533 720 c-35 -11 -73 -53 -73 -81 0 -27 36 -59 65 -59 24 0 25 2
25 65 0 61 1 65 26 71 59 15 99 -29 109 -122 l7 -60 -112 -16 c-70 -10 -118
-21 -127 -31 -9 -9 -18 -38 -21 -66 -4 -45 -2 -53 25 -80 54 -54 164 -54 215
1 23 25 29 27 34 14 4 -9 19 -23 35 -31 32 -17 124 -21 114 -5 -3 6 -15 10
-26 10 -18 0 -19 8 -19 138 0 161 -11 192 -79 231 -48 26 -145 37 -198 21z
m157 -269 c0 -49 -4 -65 -26 -90 -33 -40 -76 -42 -92 -6 -15 32 -15 95 -2 129
9 24 15 26 65 26 l55 0 0 -59z"/>
<path d="M3497 716 c-81 -29 -121 -95 -121 -201 0 -136 77 -215 211 -215 79 0
154 51 153 104 -1 16 -5 13 -21 -16 -31 -60 -116 -88 -161 -54 -25 19 -48 79
-48 124 l0 39 103 6 c130 9 144 13 150 44 23 121 -129 217 -266 169z m104 -15
c21 -17 24 -30 27 -99 l4 -79 -39 -6 c-81 -14 -83 -13 -83 46 0 62 15 121 36
142 20 19 27 19 55 -4z"/>
<path d="M954 711 c4 -6 14 -11 22 -11 12 0 14 -30 14 -183 l0 -183 -27 -11
c-23 -9 -5 -11 92 -11 97 0 115 2 93 11 l-28 11 0 171 c0 210 1 208 -100 213
-52 3 -71 1 -66 -7z"/>
<path d="M1243 708 l27 -12 0 -181 0 -181 -27 -11 c-23 -9 -5 -11 92 -11 97 0
115 2 93 11 l-28 11 0 157 0 157 31 26 c17 14 40 26 52 26 20 0 22 -5 22 -52
0 -51 1 -53 28 -56 39 -5 57 14 57 59 0 28 -6 42 -22 53 -41 29 -117 17 -158
-24 l-21 -21 -23 27 c-20 24 -32 28 -87 30 -56 3 -61 2 -36 -8z"/>
<path d="M2014 711 c4 -6 14 -11 22 -11 12 0 14 -30 14 -183 l0 -183 -27 -11
c-23 -9 -5 -11 92 -11 97 0 115 2 93 11 l-28 11 0 154 0 154 29 29 c17 17 40
29 55 29 25 0 26 -3 26 -55 0 -54 0 -55 29 -55 32 0 61 30 61 63 0 31 -45 67
-85 67 -39 0 -83 -19 -105 -45 -12 -14 -16 -13 -41 11 -22 21 -41 28 -85 32
-41 3 -55 2 -50 -7z"/>
<path d="M2874 711 c4 -6 13 -11 19 -11 7 0 59 -90 115 -201 57 -110 109 -198
115 -196 6 2 45 88 88 191 69 172 79 190 108 202 17 7 31 16 31 19 0 3 -31 5
-70 5 -70 0 -93 -12 -45 -24 14 -4 25 -12 25 -20 0 -11 -77 -205 -86 -215 -1
-2 -28 47 -58 108 -35 69 -66 117 -83 128 -31 21 -170 33 -159 14z"/>
</g>
</svg>
